# xmcd
#
# Track frame offsets:
#	150
#	13585
#	24768
#	38943
#	50355
#	61747
#	76974
#	92712
#
# Disc length: 1426 seconds
#
# Revision: 0
# Processed by: cddbd v1.5.1PL0 Copyright (c) Steve Scherf et al.
# Submitted via: dBpowerAMP V4.0
#
DISCID=51059008
DTITLE=Conway Twitty - After All The Good Is Gone
DYEAR=2005
DGENRE=Country
TTITLE0=After All The Good Is Gone
TTITLE1=As Soon As I Hung Up
TTITLE2=Fifteen Years Ago
TTITLE3=Hello Darlin'
TTITLE4=It's Only Make Believe
TTITLE5=Lost Her Love After Our Last Date
TTITLE6=Touch The Hand
TTITLE7=You're Never Been This Far Before
EXTD=
EXTT0=
EXTT1=
EXTT2=
EXTT3=
EXTT4=
EXTT5=
EXTT6=
EXTT7=
PLAYORDER=
